<svg xmlns="http://www.w3.org/2000/svg" width="1920" height="3928" fill="none" viewBox="0 0 1920 3928">
  <path fill="#013E87" fill-opacity=".25" fill-rule="evenodd" d="M327.417 729.801c79.257 49.244 189.124 37.435 256.479 100.497 70.628 66.127 108.822 158.517 117.01 249.192 8.066 89.3-34.814 169.34-71.966 249.56-39.418 85.11-58.336 197.9-151.025 231.9-93.585 34.33-198.474-34.57-296.748-67.64-74.355-25.03-137.92-64.23-206.587-101.79-78.65-43-175.536-63.85-226.003-134.77-53.868-75.7-59.847-170.02-53.381-257.84 6.973-94.715 41.513-181.498 91.648-261.921 61.899-99.295 106.045-255.948 232.232-257.626 134.999-1.795 192.794 178.646 308.341 250.438Z" clip-rule="evenodd"/>
  <path fill="#8C0000" fill-opacity=".25" fill-rule="evenodd" d="M1765.79 143.523c82.83 12.459 138.85 123.153 207.12 186.305 65.2 60.303 193.83 132.379 188.76 179.885-6.78 63.47-199.69 5.357-214.89 64.858-11.34 44.361 129.18 124.967 151.77 182.211 25.19 63.846 26.6 125.691-18.37 155.86-45.01 30.19-135.26 25.334-225.65 7.837-90.42-17.502-199.43-46.986-287.42-107.152-93.74-64.094-96.82-149.649-186.16-216.666-81.13-60.85-203.51-67.323-277.56-131.152-69.14-59.588-101.87-136.6-75.65-173.292 30.59-42.814 198.79 20.508 219.43-27.927 19.03-44.649-131.46-143.998-124.58-194.677 5.85-43.111 75.97-73.956 156.05-37.266 116.18 53.23 163.33 209.02 273.86 234.244 137.35 31.346 82.25-142.778 213.29-123.068Z" clip-rule="evenodd"/>
  <path fill="#013E87" fill-opacity=".25" fill-rule="evenodd" d="M97.05 3245.18c91.757-16.95 165.041-99.65 257.302-98.37 96.743 1.35 187.186 43.94 254.287 105.47 66.087 60.6 88.273 148.66 114.808 232.98 28.154 89.47 90.104 185.61 44.461 273.15-46.084 88.39-170.022 108.07-264.957 149.77-71.829 31.56-145.223 45.37-221.276 63.84-87.111 21.15-172.785 70.96-257.85 52.5-90.795-19.71-158.716-85.42-213.061-154.71-58.612-74.72-91.501-162.15-108.577-255.36-21.083-115.1-93.91-260.65-1.737-346.85 98.611-92.21 262.829 2.29 396.6-22.42Z" clip-rule="evenodd"/>
  <path fill="#8C0000" fill-opacity=".25" fill-rule="evenodd" d="M2197.31 3110.7c8.66 83.31-84.5 165.25-128.57 247.15-42.08 78.2-79.69 220.77-126.95 227.74-63.15 9.32-55.14-192-116.55-191.83-45.78.12-88.68 156.33-138.45 192.52-55.52 40.36-115.04 57.2-155.5 21.2-40.49-36.02-58.36-124.62-64.03-216.51-5.68-91.92-4.4-204.84 31.85-305.09 38.61-106.79 120.67-131.17 163.21-234.44 38.62-93.77 14.28-213.88 57.55-301.54 40.4-81.84 106.78-132.8 148.86-116.59 49.11 18.91 29.87 197.6 81.93 205.47 47.99 7.25 106.54-163.3 157.33-169.32 43.2-5.12 90.6 55.06 75.11 141.77-22.48 125.8-161.52 210.42-158.29 323.75 4 140.83 158.81 43.92 172.5 175.72Z" clip-rule="evenodd"/>
</svg>
